<mxfile host="app.diagrams.net" modified="2020-10-16T08:54:56.297Z" agent="5.0 (Macintosh; Intel Mac OS X 10_15_4) AppleWebKit/537.36 (KHTML, like Gecko) Chrome/85.0.4183.121 Safari/537.36" etag="_Un_jNw6dub8p3lmt6J5" version="13.5.4" type="github">
  <diagram id="C5RBs43oDa-KdzZeNtuy" name="Page-1">
    <mxGraphModel dx="1577" dy="1023" grid="1" gridSize="10" guides="1" tooltips="1" connect="1" arrows="1" fold="1" page="1" pageScale="1" pageWidth="827" pageHeight="1169" math="0" shadow="0">
      <root>
        <mxCell id="WIyWlLk6GJQsqaUBKTNV-0" />
        <mxCell id="WIyWlLk6GJQsqaUBKTNV-1" parent="WIyWlLk6GJQsqaUBKTNV-0" />
        <mxCell id="sgfZtJwk7GJT5AT0VCkC-10" style="edgeStyle=orthogonalEdgeStyle;rounded=0;orthogonalLoop=1;jettySize=auto;html=1;exitX=0.5;exitY=1;exitDx=0;exitDy=0;entryX=0.5;entryY=0;entryDx=0;entryDy=0;" edge="1" parent="WIyWlLk6GJQsqaUBKTNV-1" source="sgfZtJwk7GJT5AT0VCkC-0" target="sgfZtJwk7GJT5AT0VCkC-1">
          <mxGeometry relative="1" as="geometry" />
        </mxCell>
        <mxCell id="sgfZtJwk7GJT5AT0VCkC-0" value="选择数据和工作区" style="rounded=1;whiteSpace=wrap;html=1;fontSize=12;glass=0;strokeWidth=1;shadow=0;" vertex="1" parent="WIyWlLk6GJQsqaUBKTNV-1">
          <mxGeometry x="280" y="60" width="120" height="40" as="geometry" />
        </mxCell>
        <mxCell id="sgfZtJwk7GJT5AT0VCkC-30" style="edgeStyle=orthogonalEdgeStyle;rounded=0;orthogonalLoop=1;jettySize=auto;html=1;exitX=0.5;exitY=1;exitDx=0;exitDy=0;entryX=0.467;entryY=0.001;entryDx=0;entryDy=0;entryPerimeter=0;" edge="1" parent="WIyWlLk6GJQsqaUBKTNV-1" source="sgfZtJwk7GJT5AT0VCkC-1" target="sgfZtJwk7GJT5AT0VCkC-17">
          <mxGeometry relative="1" as="geometry" />
        </mxCell>
        <mxCell id="sgfZtJwk7GJT5AT0VCkC-1" value="输入图层信息" style="rounded=1;whiteSpace=wrap;html=1;fontSize=12;glass=0;strokeWidth=1;shadow=0;" vertex="1" parent="WIyWlLk6GJQsqaUBKTNV-1">
          <mxGeometry x="280" y="145" width="120" height="40" as="geometry" />
        </mxCell>
        <mxCell id="sgfZtJwk7GJT5AT0VCkC-3" value="图层发布" style="rounded=1;whiteSpace=wrap;html=1;fontSize=12;glass=0;strokeWidth=1;shadow=0;" vertex="1" parent="WIyWlLk6GJQsqaUBKTNV-1">
          <mxGeometry x="270" y="1080" width="120" height="40" as="geometry" />
        </mxCell>
        <mxCell id="sgfZtJwk7GJT5AT0VCkC-29" value="" style="group" vertex="1" connectable="0" parent="WIyWlLk6GJQsqaUBKTNV-1">
          <mxGeometry x="120" y="250" width="470" height="240" as="geometry" />
        </mxCell>
        <mxCell id="sgfZtJwk7GJT5AT0VCkC-2" value="选择样式" style="rounded=1;whiteSpace=wrap;html=1;fontSize=12;glass=0;strokeWidth=1;shadow=0;" vertex="1" parent="sgfZtJwk7GJT5AT0VCkC-29">
          <mxGeometry x="175" y="185" width="120" height="40" as="geometry" />
        </mxCell>
        <mxCell id="sgfZtJwk7GJT5AT0VCkC-12" style="edgeStyle=orthogonalEdgeStyle;rounded=0;orthogonalLoop=1;jettySize=auto;html=1;exitX=1;exitY=0.5;exitDx=0;exitDy=0;entryX=0;entryY=0.5;entryDx=0;entryDy=0;" edge="1" parent="sgfZtJwk7GJT5AT0VCkC-29" source="sgfZtJwk7GJT5AT0VCkC-5">
          <mxGeometry relative="1" as="geometry">
            <mxPoint x="185.00000000000023" y="75" as="targetPoint" />
          </mxGeometry>
        </mxCell>
        <mxCell id="sgfZtJwk7GJT5AT0VCkC-5" value="样式查询" style="rounded=1;whiteSpace=wrap;html=1;fontSize=12;glass=0;strokeWidth=1;shadow=0;" vertex="1" parent="sgfZtJwk7GJT5AT0VCkC-29">
          <mxGeometry x="15" y="55" width="120" height="40" as="geometry" />
        </mxCell>
        <mxCell id="sgfZtJwk7GJT5AT0VCkC-9" style="edgeStyle=orthogonalEdgeStyle;rounded=0;orthogonalLoop=1;jettySize=auto;html=1;exitX=0.5;exitY=1;exitDx=0;exitDy=0;entryX=0.5;entryY=0;entryDx=0;entryDy=0;" edge="1" parent="sgfZtJwk7GJT5AT0VCkC-29" target="sgfZtJwk7GJT5AT0VCkC-2">
          <mxGeometry relative="1" as="geometry">
            <mxPoint x="235.00000000000023" y="115" as="sourcePoint" />
          </mxGeometry>
        </mxCell>
        <mxCell id="sgfZtJwk7GJT5AT0VCkC-13" value="是" style="edgeLabel;html=1;align=center;verticalAlign=middle;resizable=0;points=[];" vertex="1" connectable="0" parent="sgfZtJwk7GJT5AT0VCkC-9">
          <mxGeometry x="0.0667" y="-2" relative="1" as="geometry">
            <mxPoint y="1" as="offset" />
          </mxGeometry>
        </mxCell>
        <mxCell id="sgfZtJwk7GJT5AT0VCkC-15" value="否" style="edgeStyle=orthogonalEdgeStyle;rounded=0;orthogonalLoop=1;jettySize=auto;html=1;exitX=1;exitY=0.5;exitDx=0;exitDy=0;entryX=0;entryY=0.5;entryDx=0;entryDy=0;" edge="1" parent="sgfZtJwk7GJT5AT0VCkC-29" target="sgfZtJwk7GJT5AT0VCkC-14">
          <mxGeometry relative="1" as="geometry">
            <mxPoint x="285.0000000000002" y="75" as="sourcePoint" />
          </mxGeometry>
        </mxCell>
        <mxCell id="sgfZtJwk7GJT5AT0VCkC-6" value="是否存在适用的样式？" style="rhombus;whiteSpace=wrap;html=1;shadow=0;fontFamily=Helvetica;fontSize=12;align=center;strokeWidth=1;spacing=6;spacingTop=-4;" vertex="1" parent="sgfZtJwk7GJT5AT0VCkC-29">
          <mxGeometry x="185" y="34" width="100" height="80" as="geometry" />
        </mxCell>
        <mxCell id="sgfZtJwk7GJT5AT0VCkC-16" style="edgeStyle=orthogonalEdgeStyle;rounded=0;orthogonalLoop=1;jettySize=auto;html=1;exitX=0.5;exitY=1;exitDx=0;exitDy=0;entryX=1;entryY=0.5;entryDx=0;entryDy=0;" edge="1" parent="sgfZtJwk7GJT5AT0VCkC-29" source="sgfZtJwk7GJT5AT0VCkC-14" target="sgfZtJwk7GJT5AT0VCkC-2">
          <mxGeometry relative="1" as="geometry" />
        </mxCell>
        <mxCell id="sgfZtJwk7GJT5AT0VCkC-14" value="创建样式" style="rounded=1;whiteSpace=wrap;html=1;fontSize=12;glass=0;strokeWidth=1;shadow=0;" vertex="1" parent="sgfZtJwk7GJT5AT0VCkC-29">
          <mxGeometry x="335" y="55" width="120" height="40" as="geometry" />
        </mxCell>
        <mxCell id="sgfZtJwk7GJT5AT0VCkC-17" value="" style="rounded=0;whiteSpace=wrap;html=1;fillColor=none;" vertex="1" parent="sgfZtJwk7GJT5AT0VCkC-29">
          <mxGeometry width="470" height="240" as="geometry" />
        </mxCell>
        <mxCell id="sgfZtJwk7GJT5AT0VCkC-31" value="&lt;font style=&quot;font-size: 16px&quot;&gt;选择图层发布需要的样式&lt;/font&gt;" style="text;html=1;strokeColor=none;fillColor=none;align=center;verticalAlign=middle;whiteSpace=wrap;rounded=0;" vertex="1" parent="sgfZtJwk7GJT5AT0VCkC-29">
          <mxGeometry x="-10" y="14" width="220" height="20" as="geometry" />
        </mxCell>
        <mxCell id="sgfZtJwk7GJT5AT0VCkC-33" value="发布图层" style="rounded=1;whiteSpace=wrap;html=1;fontSize=12;glass=0;strokeWidth=1;shadow=0;" vertex="1" parent="WIyWlLk6GJQsqaUBKTNV-1">
          <mxGeometry x="295" y="560" width="120" height="40" as="geometry" />
        </mxCell>
        <mxCell id="sgfZtJwk7GJT5AT0VCkC-34" style="edgeStyle=orthogonalEdgeStyle;rounded=0;orthogonalLoop=1;jettySize=auto;html=1;exitX=0.5;exitY=1;exitDx=0;exitDy=0;entryX=0.5;entryY=0;entryDx=0;entryDy=0;" edge="1" parent="WIyWlLk6GJQsqaUBKTNV-1" source="sgfZtJwk7GJT5AT0VCkC-17" target="sgfZtJwk7GJT5AT0VCkC-33">
          <mxGeometry relative="1" as="geometry" />
        </mxCell>
      </root>
    </mxGraphModel>
  </diagram>
</mxfile>
